<svg id="모아보기" xmlns="http://www.w3.org/2000/svg" width="20" height="20" viewBox="0 0 20 20">
  <rect id="Rectangle_981" data-name="Rectangle 981" width="20" height="20" fill="none"/>
  <path id="Union_62" data-name="Union 62" d="M14.5,20a2,2,0,0,1-2-2V14.5a2,2,0,0,1,2-2H18a2,2,0,0,1,2,2V18a2,2,0,0,1-2,2ZM2,20a2,2,0,0,1-2-2V14.5a2,2,0,0,1,2-2H5.5a2,2,0,0,1,2,2V18a2,2,0,0,1-2,2ZM14.5,7.5a2,2,0,0,1-2-2V2a2,2,0,0,1,2-2H18a2,2,0,0,1,2,2V5.5a2,2,0,0,1-2,2ZM2,7.5a2,2,0,0,1-2-2V2A2,2,0,0,1,2,0H5.5a2,2,0,0,1,2,2V5.5a2,2,0,0,1-2,2Z" fill="#6f51f9"/>
</svg>
